<svg xmlns:xlink="http://www.w3.org/1999/xlink" xmlns="http://www.w3.org/2000/svg" width="200" height="82" viewBox="0 0 200 82">
  <defs>
    <style>
      .cls-1 {
        fill: #01e8b5;
      }

      .cls-2 {
        fill: #292929;
      }
    </style>
  </defs>
  <g id="tabby" transform="translate(-38.038 -657)">
    <rect id="Rectangle_553" data-name="Rectangle 553" class="cls-1" width="200" height="82" rx="3" transform="translate(38.038 657)"/>
    <g id="Group_1010" data-name="Group 1010" transform="translate(57.522 676.266)">
      <path id="Path_8420" data-name="Path 8420" class="cls-2" d="M183.293,95.828l-10.115,38.633v.122H181.1L191.215,95.95h-7.922ZM58.253,117.765a8.165,8.165,0,0,1-3.778.853c-2.8,0-4.387-.487-4.631-2.8V103.262h0v-7.19l-7.069.853c4.753-.975,7.434-4.631,7.434-8.409V86.2H42.288V97.047l-.488.122v19.987c.244,5.606,4.022,9.019,9.994,9.019a15.529,15.529,0,0,0,6.337-1.341h0l.122-7.069Z" transform="translate(-37.291 -86.2)"/>
      <path id="Path_8421" data-name="Path 8421" class="cls-2" d="M60.281,94.169,38.1,97.581v5.606l22.181-3.412Zm0,8.287L38.1,105.868v5.362l22.181-3.412Zm24.862,2.559c-.366-6.216-4.265-9.994-10.6-9.994a10.7,10.7,0,0,0-8.775,4.144c-2.072,2.681-3.169,6.581-3.169,11.334s1.1,8.653,3.169,11.334a10.6,10.6,0,0,0,8.775,4.022c6.337,0,10.237-3.656,10.6-9.993v9.384h7.922V95.753l-7.922,1.219v8.044Zm.488,5.484c0,5.484-2.925,9.14-7.434,9.14-4.631,0-7.434-3.412-7.434-9.14s2.8-9.14,7.434-9.14a6.76,6.76,0,0,1,5.484,2.559,10.828,10.828,0,0,1,1.95,6.581ZM116.1,95.022c-6.337,0-10.237,3.656-10.6,9.994V87.1l-7.922,1.219v36.927H105.5v-9.384c.366,6.337,4.266,9.993,10.6,9.993,7.434,0,11.943-5.728,11.943-15.356S123.532,95.022,116.1,95.022Zm-3.534,24.618c-4.509,0-7.434-3.534-7.434-9.14a10.828,10.828,0,0,1,1.95-6.581,6.6,6.6,0,0,1,5.484-2.559c4.631,0,7.434,3.412,7.434,9.14s-2.8,9.14-7.434,9.14Zm36.927-24.618c-6.337,0-10.237,3.656-10.6,9.994V87.1l-7.922,1.219v36.927h7.922v-9.384c.366,6.337,4.266,9.993,10.6,9.993,7.434,0,11.943-5.728,11.943-15.356s-4.509-15.478-11.943-15.478Zm-3.534,24.618c-4.509,0-7.434-3.534-7.434-9.14a10.828,10.828,0,0,1,1.95-6.581,6.6,6.6,0,0,1,5.484-2.559c4.631,0,7.434,3.412,7.434,9.14s-2.8,9.14-7.434,9.14Zm15.478-24.009h8.409l6.825,29.615h-7.556Zm37.049,3.047V96.362h-.975v-.487h2.559v.487h-.975v2.316Zm1.706,0V95.753h.975l.488,1.341c.122.366.244.487.244.609,0-.122.122-.244.244-.609l.487-1.341h.975v2.925h-.609V96.362l-.853,2.316h-.609l-.731-2.316v2.316Z" transform="translate(-38.1 -86.003)"/>
    </g>
  </g>
</svg>